<?xml version="1.0" encoding="UTF-8" standalone="no"?>
<svg
   viewBox="0 0 40 40"
   width="40"
   height="40"
   version="1.1"
   id="svg12"
   sodipodi:docname="tng_bw.svg"
   xmlns:inkscape="http://www.inkscape.org/namespaces/inkscape"
   xmlns:sodipodi="http://sodipodi.sourceforge.net/DTD/sodipodi-0.dtd"
   xmlns="http://www.w3.org/2000/svg"
   xmlns:svg="http://www.w3.org/2000/svg">
  <defs
     id="defs16" />
  <sodipodi:namedview
     id="namedview14"
     pagecolor="#ffffff"
     bordercolor="#000000"
     borderopacity="0.25"
     inkscape:showpageshadow="2"
     inkscape:pageopacity="0.0"
     inkscape:pagecheckerboard="0"
     inkscape:deskcolor="#d1d1d1"
     showgrid="false" />
  <path
     id="path6"
     style="display:inline;fill:#000000;fill-opacity:1"
     d="M 20,1 C 16.161004,5.7049953 12.758951,11.676867 10.751953,19.005859 9.3559545,24.433854 8.4359996,31.219008 8,39 h 1 c 2.883997,-5.809994 7.335146,-10.676082 12.744141,-14.205078 0.871999,-0.452 1.310094,-0.724609 1.746093,-0.72461 0.174,0 0.435095,0.18161 0.871094,0.72461 C 26.630326,28.051919 28.557002,31.567004 31,36 h 1 C 31.389001,29.486007 30.643717,23.529432 28.636719,17.648438 26.630721,11.586444 23.663996,5.7949952 20,1 Z m 0,9 c 9.925,0 18,5.383 18,12 0,6.617 -8.075,12 -18,12 C 10.075,34 2,28.617 2,22 2,15.383 10.075,10 20,10 M 20,9 C 9.507,9 1,14.82 1,22 1,29.18 9.507,35 20,35 30.493,35 39,29.18 39,22 39,14.82 30.493,9 20,9 Z" />
</svg>
